HIERARCHY
ROOT Hips
{
	OFFSET 0.000000 0.000000 0.000000
	CHANNELS 6 Xposition Yposition Zposition Xrotation Yrotation Zrotation
	JOINT LeftUpLeg_virtual
	{
		OFFSET 0.000000 0.000000 0.000000
		CHANNELS 3 Xrotation Yrotation Zrotation
		JOINT LeftUpLeg
		{
			OFFSET 11.394100 -6.187798 -0.413800
			CHANNELS 3 Xrotation Yrotation Zrotation
			JOINT LeftLeg
			{
				OFFSET 0.430247 -32.302673 3.732800
				CHANNELS 3 Xrotation Yrotation Zrotation
				JOINT LeftFoot
				{
					OFFSET -0.430247 -48.264931 -6.423300
					CHANNELS 3 Xrotation Yrotation Zrotation
					JOINT LeftToeBase
					{
						OFFSET 4.230900 -16.068199 23.438400
						CHANNELS 3 Xrotation Yrotation Zrotation
						JOINT LeftToe_End
						{
							OFFSET 4.510700 0.695400 19.974600
							CHANNELS 3 Xrotation Yrotation Zrotation
							End Site
							{
								OFFSET 0 0 0
							}
						}
					}
				}
			}
		}
	}
	JOINT RightUpLeg_virtual
	{
		OFFSET 0.000000 0.000000 0.000000
		CHANNELS 3 Xrotation Yrotation Zrotation
		JOINT RightUpLeg
		{
			OFFSET -11.333700 -6.187798 -0.413800
			CHANNELS 3 Xrotation Yrotation Zrotation
			JOINT RightLeg
			{
				OFFSET -0.430392 -32.302628 3.733000
				CHANNELS 3 Xrotation Yrotation Zrotation
				JOINT RightFoot
				{
					OFFSET 0.430392 -48.264973 -6.423500
					CHANNELS 3 Xrotation Yrotation Zrotation
					JOINT RightToeBase
					{
						OFFSET -4.230900 -16.068199 23.438400
						CHANNELS 3 Xrotation Yrotation Zrotation
						JOINT RightToe_End
						{
							OFFSET -4.510700 0.695400 19.974600
							CHANNELS 3 Xrotation Yrotation Zrotation
							End Site
							{
								OFFSET 0 0 0
							}
						}
					}
				}
			}
		}
	}
	JOINT Spine_virtual
	{
		OFFSET 0.000000 0.000000 0.000000
		CHANNELS 3 Xrotation Yrotation Zrotation
		JOINT Spine
		{
			OFFSET -0.002400 12.777504 0.315300
			CHANNELS 3 Xrotation Yrotation Zrotation
			JOINT Spine1
			{
				OFFSET -0.002067 5.816869 0.032633
				CHANNELS 3 Xrotation Yrotation Zrotation
				JOINT Spine1_split
				{
					OFFSET -0.002067 5.816869 0.032633
					CHANNELS 3 Xrotation Yrotation Zrotation
					JOINT Spine2
					{
						OFFSET -0.002067 5.816869 0.032633
						CHANNELS 3 Xrotation Yrotation Zrotation
						JOINT Neck_virtual
						{
							OFFSET 0.000000 0.000000 0.000000
							CHANNELS 3 Xrotation Yrotation Zrotation
							JOINT Neck
							{
								OFFSET -0.003700 21.199493 -0.826900
								CHANNELS 3 Xrotation Yrotation Zrotation
								JOINT Head
								{
									OFFSET 0.000000 20.442200 4.834800
									CHANNELS 3 Xrotation Yrotation Zrotation
									JOINT HeadTop_End
									{
										OFFSET 0.000000 34.668396 4.968400
										CHANNELS 3 Xrotation Yrotation Zrotation
										End Site
										{
											OFFSET 0 0 0
										}
									}
								}
							}
						}
						JOINT LeftShoulder_virtual
						{
							OFFSET 0.000000 0.000000 0.000000
							CHANNELS 3 Xrotation Yrotation Zrotation
							JOINT LeftShoulder
							{
								OFFSET 3.288150 8.794197 -1.372250
								CHANNELS 3 Xrotation Yrotation Zrotation
								JOINT LeftShoulder_split
								{
									OFFSET 3.288150 8.794197 -1.372250
									CHANNELS 3 Xrotation Yrotation Zrotation
									JOINT LeftArm
									{
										OFFSET 11.953299 -2.279007 -0.146200
										CHANNELS 3 Xrotation Yrotation Zrotation
										JOINT LeftForeArm
										{
											OFFSET 18.448900 0.000000 0.000000
											CHANNELS 3 Xrotation Yrotation Zrotation
											JOINT LeftHand
											{
												OFFSET 29.527798 0.000000 0.000000
												CHANNELS 3 Xrotation Yrotation Zrotation
												End Site
												{
													OFFSET 0 0 0
												}
											}
										}
									}
								}
							}
						}
						JOINT RightShoulder_virtual
						{
							OFFSET 0.000000 0.000000 0.000000
							CHANNELS 3 Xrotation Yrotation Zrotation
							JOINT RightShoulder
							{
								OFFSET -3.249400 8.794197 -1.372250
								CHANNELS 3 Xrotation Yrotation Zrotation
								JOINT RightShoulder_split
								{
									OFFSET -3.249400 8.794197 -1.372250
									CHANNELS 3 Xrotation Yrotation Zrotation
									JOINT RightArm
									{
										OFFSET -11.953299 -2.279007 -0.146200
										CHANNELS 3 Xrotation Yrotation Zrotation
										JOINT RightForeArm
										{
											OFFSET -18.448900 0.000000 0.000000
											CHANNELS 3 Xrotation Yrotation Zrotation
											JOINT RightHand
											{
												OFFSET -29.527802 0.000000 0.000000
												CHANNELS 3 Xrotation Yrotation Zrotation
												End Site
												{
													OFFSET 0 0 0
												}
											}
										}
									}
								}
							}
						}
					}
				}
			}
		}
	}
}
MOTION
Frames: 6
Frame Time: 0.03333333
-2.182220 80.390785 2.675991 0.000000 0.000000 0.000000 5.017081 58.481091 -9.188337 -9.213307 6.069728 25.444442 51.194030 -8.974604 10.947245 -23.192464 5.890058 -19.655666 -7.220740 0.855982 -4.524651 0.000000 0.000000 0.000000 7.746225 58.794234 -11.093013 -52.656845 15.649376 -20.365729 34.516965 6.518857 -3.898091 6.930984 8.119206 13.895416 -7.796222 -0.871693 2.172927 0.000000 0.000000 0.000000 7.423849 61.125979 -8.430311 0.770877 -2.939300 -1.791999 2.811168 -0.649130 -0.283735 1.231921 -1.007606 0.221921 0.000000 0.000000 0.000000 1.757811 -1.143648 0.031372 -5.911079 -10.789261 -1.308135 -1.157524 -41.837374 6.711100 0.000000 0.000000 0.000000 1.581616 -1.144685 -0.288844 0.356454 -8.446524 -9.703636 -3.524238 0.156816 -2.307281 1.897669 -46.049296 -47.064621 173.657204 -73.648632 172.478642 0.000000 0.000000 0.000000 2.307021 -0.898904 -0.190292 -0.112974 -2.038598 9.372936 -3.634841 6.917914 -0.984749 -24.292295 -8.404069 46.363013 -178.726489 66.148183 178.062321 0.000000 0.000000 0.000000 
-2.279432 83.993286 2.089993 0.000000 0.000000 0.000000 4.932282 56.795311 -9.331788 -9.032790 4.250251 25.210913 48.415789 -6.099049 9.411705 -18.979591 6.535953 -15.884035 -6.141555 0.795504 -5.515254 0.000000 0.000000 0.000000 7.989403 56.072277 -10.836997 -50.898324 12.520375 -20.666021 29.675676 7.792728 -3.775323 9.243918 10.492612 17.317728 -10.008242 0.156085 0.860406 0.000000 0.000000 0.000000 7.831460 58.203266 -8.699960 0.101068 -3.056046 -1.253885 2.535855 -0.667703 -0.194607 1.229295 -1.044958 0.154940 0.000000 0.000000 0.000000 2.144575 -1.039594 0.011943 -5.592441 -10.571198 -0.999770 -0.912026 -41.811983 6.687918 0.000000 0.000000 0.000000 1.662319 -1.154602 -0.157046 0.375509 -8.785173 -8.714165 -4.103807 -0.805893 -1.033640 -1.505335 -46.313713 -47.337589 175.195213 -72.423610 174.250871 0.000000 0.000000 0.000000 2.361099 -0.874050 -0.085149 -0.065244 -1.984291 9.053429 -3.901684 5.752088 -1.737191 -25.557050 -8.953948 45.528767 -179.327750 65.114516 178.406112 0.000000 0.000000 0.000000 
-2.078693 90.721840 0.560848 0.000000 0.000000 0.000000 4.617834 53.652270 -9.181625 -9.724023 2.167107 24.598324 43.400217 -4.031779 7.771654 -9.092683 5.348991 -14.593744 -3.243932 0.656675 -8.869228 0.000000 0.000000 0.000000 8.061181 51.376857 -10.314896 -47.568996 8.959885 -19.550679 21.244390 8.862532 -3.120744 11.582603 12.654840 19.177091 -10.087691 1.071456 0.076894 0.000000 0.000000 0.000000 7.901445 53.227237 -8.558516 -0.532128 -2.909328 -0.469856 2.352024 -0.533489 -0.228738 1.314345 -0.785191 0.183858 0.000000 0.000000 0.000000 2.574313 -0.792510 -0.109618 -5.133396 -9.968892 -0.581674 -0.547603 -40.473112 6.556386 0.000000 0.000000 0.000000 1.909630 -0.966927 -0.114663 0.416747 -8.586218 -7.266607 -3.623115 -1.420316 -0.751241 -6.062473 -45.860971 -47.244658 177.120315 -70.352854 176.234699 0.000000 0.000000 0.000000 2.494623 -0.745740 -0.140851 0.024745 -1.576168 8.373400 -3.731376 4.410901 -1.544922 -27.434020 -7.762470 43.141835 -179.237838 63.940672 178.137098 0.000000 0.000000 0.000000 
-1.557077 98.541687 -1.571415 0.000000 0.000000 0.000000 3.848360 48.726167 -8.663673 -10.455096 1.275319 23.446233 38.416840 -2.247368 6.127712 2.993458 2.837453 -13.841471 -5.505471 0.599718 -10.602761 0.000000 0.000000 0.000000 7.122440 45.518962 -9.281466 -43.827053 5.392239 -17.333924 13.902002 8.641522 -2.268285 12.780040 12.793980 18.448824 -8.161730 1.579707 -0.159831 0.000000 0.000000 0.000000 7.324918 47.046353 -7.810696 -0.820157 -2.550217 0.320592 2.281135 -0.282625 -0.326143 1.274181 -0.594908 0.259928 0.000000 0.000000 0.000000 2.946356 -0.450672 -0.277258 -4.637357 -9.096685 -0.146057 -0.071821 -37.878037 6.289555 0.000000 0.000000 0.000000 2.246798 -0.649425 -0.139163 0.432842 -7.884613 -5.713450 -2.699361 -1.460488 -1.178019 -10.881728 -44.373454 -47.110096 178.829707 -68.292732 177.882496 0.000000 0.000000 0.000000 2.685915 -0.512884 -0.318090 0.123440 -0.790036 7.602766 -3.240672 3.682618 -0.847305 -29.138454 -5.029198 40.144877 -178.772620 63.114049 177.654641 0.000000 0.000000 0.000000 
-0.884579 105.681473 -3.301666 0.000000 0.000000 0.000000 2.575070 42.752224 -7.554732 -10.764092 1.872644 21.311828 34.958028 -0.122733 4.814062 11.324188 0.635118 -11.366117 -12.365110 0.792060 -9.788721 0.000000 0.000000 0.000000 5.047317 38.975662 -7.799863 -40.776588 2.165644 -14.844161 11.338550 7.017674 -1.682731 12.599729 10.273574 15.680385 -6.541661 1.630133 -0.143706 0.000000 0.000000 0.000000 6.054835 40.836062 -6.565564 -0.648164 -2.032336 0.925945 2.357410 0.044600 -0.420032 1.111141 -0.432170 0.183446 0.000000 0.000000 0.000000 3.196827 -0.074830 -0.414030 -4.176936 -7.945323 0.188525 0.474377 -34.327725 5.906170 0.000000 0.000000 0.000000 2.617684 -0.258792 -0.201308 0.386635 -6.808043 -4.364397 -1.968953 -0.843648 -1.635641 -15.138061 -42.093325 -47.069200 -179.986440 -66.893930 178.964507 0.000000 0.000000 0.000000 2.875877 -0.188564 -0.539553 0.264632 0.293943 7.119580 -2.627936 3.724624 -0.447404 -30.175339 -1.431970 37.454449 -178.205537 62.937188 177.252616 0.000000 0.000000 0.000000 
-0.048053 110.639977 -4.204060 0.000000 0.000000 0.000000 0.880527 35.947880 -5.946128 -12.473279 3.452329 19.135192 35.034052 2.328619 3.658785 13.984227 -0.326827 -8.189168 -15.179329 1.066718 -9.641292 0.000000 0.000000 0.000000 2.086334 32.868428 -6.016309 -38.923862 -0.137451 -12.894031 15.253646 4.913709 -1.477511 11.179590 6.197617 11.994852 -6.196123 1.375193 -0.213320 0.000000 0.000000 0.000000 4.064785 35.428557 -4.999555 -0.070106 -1.433271 1.257831 2.542824 0.423819 -0.458593 0.995700 -0.360951 -0.007736 0.000000 0.000000 0.000000 3.292142 0.265334 -0.480794 -3.827727 -6.557584 0.348289 1.041801 -30.231589 5.451676 0.000000 0.000000 0.000000 2.958800 0.132934 -0.276898 0.306553 -5.650575 -3.505797 -1.751487 -0.097266 -2.084737 -17.670046 -39.280278 -47.157979 -179.369087 -66.393776 179.527697 0.000000 0.000000 0.000000 3.042742 0.179638 -0.715775 0.444310 1.498407 7.214929 -2.079239 4.038586 -0.387145 -30.266887 2.105732 35.773440 -177.845026 63.569814 177.206635 0.000000 0.000000 0.000000 
